<?xml version="1.0" standalone="no"?><svg xmlns="http://www.w3.org/2000/svg" viewBox="0 0 1440 320"><path fill="#D4A83F" fill-opacity="1" d="M0,96L21.8,117.3C43.6,139,87,181,131,202.7C174.5,224,218,224,262,192C305.5,160,349,96,393,96C436.4,96,480,160,524,165.3C567.3,171,611,117,655,96C698.2,75,742,85,785,106.7C829.1,128,873,160,916,192C960,224,1004,256,1047,250.7C1090.9,245,1135,203,1178,165.3C1221.8,128,1265,96,1309,85.3C1352.7,75,1396,85,1418,90.7L1440,96L1440,0L1418.2,0C1396.4,0,1353,0,1309,0C1265.5,0,1222,0,1178,0C1134.5,0,1091,0,1047,0C1003.6,0,960,0,916,0C872.7,0,829,0,785,0C741.8,0,698,0,655,0C610.9,0,567,0,524,0C480,0,436,0,393,0C349.1,0,305,0,262,0C218.2,0,175,0,131,0C87.3,0,44,0,22,0L0,0Z"></path></svg>